<svg xmlns="http://www.w3.org/2000/svg" width="512" height="218" viewBox="0 0 512 218"><path fill="none" d="M0 0H512V218H0z"/><path fill="#373731" d="M108.071 92.814a5.664 5.664 0 0 1-1.094-.434c-1.306 2.542-3.146 5.91-4.808 8.196-6.402 8.803-12.855 15.845-19.716 18.173l-1.156 2.734c-.653.22-1.308.417-1.968.556-5.32 1.125-9.545.219-12.69-2.685l-1.243 2.94c-1.535-1.512-2.825-3.478-3.837-5.958l-.058-.121c-.661-1.447-1.139-3.092-1.5-4.954-.361-1.862-.717-4.526-.888-6.539a41.747 41.747 0 0 1-.12-2.758l.488-1.155a64.25 64.25 0 0 1 .151-3.824c.023-.545.043-.872.043-.872l.017.078c.568-6.514 2.203-12.562 4.961-18.125 2.392-4.827 5.218-8.471 8.464-10.972l-.76 1.797c1.691-1.164 3.517-1.961 5.483-2.376 4.493-.952 6.563 2.796 7.628 7.83.028.129.034.258.056.388l-.003.007c.954 5.154-.835 10.273-5.411 15.348a48.88 48.88 0 0 1-1.632 1.669c.486-2.381.663-4.341.663-4.341-3.547 5.273-10.144 10.764-15.819 15.662l.701 2.944a60.043 60.043 0 0 0 9.68-3.333c5.467-2.424 10.311-5.673 14.496-9.797 6.905-6.8 9.657-13.521 8.256-20.153-.761-3.589-2.524-6.288-5.278-8.108l1.594-2.856c-3.589-1.903-9.616-2.5-14.692-1.428-.564.12-1.111.266-1.661.409l1.795-4.246C66.54 59.722 57.39 66.892 50.785 78.037c-7.152 12.063-9.225 25.204-6.218 39.416.823 3.889 1.988 7.352 3.472 10.421l1.833-4.335c1.844 3.544 4.233 6.415 7.2 8.574a21.321 21.321 0 0 0 3.702 2.148l1.483-3.508c4.208 1.827 8.975 2.204 14.325 1.072.158-.033.313-.086.47-.123l1.627-3.848c9.651-2.307 17.956-11.861 24.879-23.944 1.744-3.037 3.747-7.694 5.094-10.997-.194-.034-.391-.047-.581-.099z"/><path fill="#373731" d="M214.508 129.028L241.248 65.792 244.196 58.819 273.885 128.847 265.526 128.333 244.129 92.845 223.227 127.862z"/><path fill="#373731" d="M462.155 125.35L462.155 65.792 450.073 65.792 450.073 106.068 424.029 65.832 412.31 69.291 412.31 128.847 424.437 128.847 424.437 87.358 450.659 128.743z"/><path fill="#373731" d="M374.088 64.861c-17.927 0-32.458 14.532-32.458 32.458s14.531 32.458 32.458 32.458c17.926 0 32.459-14.532 32.459-32.458s-14.533-32.458-32.459-32.458zm0 52.542c-11.091 0-20.083-8.992-20.083-20.083s8.992-20.083 20.083-20.083c11.09 0 20.083 8.992 20.083 20.083s-8.993 20.083-20.083 20.083zm-219.7-33.602c-1.526-4.096-3.788-7.588-6.759-10.479a27.51 27.51 0 0 0-2.467-2.114l-4.8.451 11.351-5.34-16.405.439.002.003c-1.327-.268-3.651-.483-5.416-.639l.435-.877.408-1.053 3.716-8.88-.73-4.297-6.663 10.896-3.29-.005-2.899-3.826 1.839-7.298-1.346-4.141-7.541 17.677v.578l-.04 5.693-7.116 16.809 5.888-.595 2.097 1.688 4.464-7.386 2.32-3.843 2.546-.037c6.357 0 11.334.125 14.88 3.766 3.533 3.64 5.219 9.729 5.219 16.287 0 7.134-1.619 12.366-4.845 15.711-3.239 3.359-8.271 5.033-15.123 5.033h-7.949l12.808-30.273-8.633.936-16.126 26.754-1.337 2.217 8.726 11.192h13.302c4.818 0 8.659-.361 11.51-1.084 2.864-.723 5.447-1.941 7.749-3.64 4.082-2.917 7.187-6.625 9.314-11.148 2.142-4.523 3.212-9.636 3.212-15.35 0-5.112-.776-9.717-2.301-13.825zm-19.329 71.366c0 1.717.259 3.227.777 4.526.518 1.301 1.206 2.394 2.064 3.277a8.642 8.642 0 0 0 2.955 2.009 9.03 9.03 0 0 0 3.447.681c.935 0 1.8-.157 2.595-.474a8.942 8.942 0 0 0 2.235-1.288 13.495 13.495 0 0 0 1.951-1.876 31.295 31.295 0 0 0 1.743-2.234l2.69 1.97a17.22 17.22 0 0 1-2.103 2.708 14.626 14.626 0 0 1-2.766 2.292 14.805 14.805 0 0 1-3.353 1.592 12.028 12.028 0 0 1-3.827.606c-2.273 0-4.363-.328-6.27-.984-1.907-.657-3.549-1.591-4.925-2.804a13.005 13.005 0 0 1-3.239-4.357c-.783-1.691-1.174-3.573-1.174-5.645 0-1.996.366-3.839 1.099-5.531a12.693 12.693 0 0 1 3.107-4.377c1.338-1.225 2.942-2.179 4.811-2.86 1.869-.682 3.94-1.024 6.213-1.024 1.516 0 2.911.177 4.187.531 1.275.354 2.425.847 3.448 1.478a13.65 13.65 0 0 1 2.766 2.254c.82.873 1.534 1.825 2.141 2.86l-2.766 1.895a21.962 21.962 0 0 0-1.799-2.216 14.04 14.04 0 0 0-2.065-1.837 9.636 9.636 0 0 0-2.33-1.25 7.328 7.328 0 0 0-2.558-.456 8.95 8.95 0 0 0-3.466.683 8.135 8.135 0 0 0-2.879 2.007c-.822.886-1.478 1.984-1.97 3.297-.493 1.314-.739 2.83-.739 4.547zm45.006 13.789c-2.122 0-4.098-.348-5.928-1.042-1.832-.694-3.423-1.659-4.774-2.896a13.391 13.391 0 0 1-3.182-4.415c-.77-1.705-1.156-3.579-1.156-5.626 0-1.995.386-3.818 1.156-5.474a12.818 12.818 0 0 1 3.182-4.261c1.351-1.188 2.942-2.116 4.774-2.786 1.831-.669 3.807-1.004 5.928-1.004s4.098.335 5.929 1.004c1.831.67 3.428 1.598 4.792 2.786a12.684 12.684 0 0 1 3.201 4.261c.77 1.656 1.156 3.466 1.156 5.436 0 2.097-.386 4.011-1.156 5.74-.771 1.731-1.837 3.209-3.201 4.433-1.364 1.226-2.962 2.173-4.792 2.841-1.831.668-3.807 1.003-5.929 1.003zm0-2.236c1.289 0 2.426-.296 3.41-.889.985-.593 1.806-1.409 2.463-2.444.656-1.036 1.155-2.274 1.496-3.712.341-1.44.512-3.006.512-4.699 0-1.667-.17-3.188-.512-4.564-.34-1.377-.839-2.562-1.496-3.561-.657-.998-1.478-1.775-2.463-2.33-.984-.555-2.122-.833-3.41-.833-1.288 0-2.425.278-3.409.833-.985.555-1.806 1.333-2.463 2.33-.657.999-1.155 2.184-1.497 3.561-.34 1.376-.511 2.898-.511 4.564 0 1.693.17 3.258.511 4.699.341 1.438.84 2.676 1.497 3.712.657 1.035 1.478 1.851 2.463 2.444.985.593 2.122.889 3.409.889zm26.758-24.7h4.13l15.04 16.746V142.02h4.054v26.748h-2.804l-16.329-18.527v18.109h-4.091v-26.33zm38.34 0h4.129l15.039 16.746V142.02h4.054v26.748h-2.801l-16.33-18.527v18.109h-4.091v-26.33zm59.774 0v2.236h-13.186v8.675h10.95v2.274h-10.95v10.455h13.186v2.69h-19.664v-26.33h19.664zm21.821 13.147c0 1.717.259 3.227.774 4.526.518 1.301 1.208 2.394 2.066 3.277a8.648 8.648 0 0 0 2.954 2.009 9.039 9.039 0 0 0 3.448.681 6.96 6.96 0 0 0 2.596-.474 9.013 9.013 0 0 0 2.235-1.288 13.431 13.431 0 0 0 1.949-1.876 31.02 31.02 0 0 0 1.744-2.234l2.69 1.97a17.229 17.229 0 0 1-2.104 2.708 14.62 14.62 0 0 1-2.765 2.292 14.845 14.845 0 0 1-3.353 1.592 12.017 12.017 0 0 1-3.826.606c-2.274 0-4.364-.328-6.271-.984-1.907-.657-3.549-1.591-4.926-2.804a13.032 13.032 0 0 1-3.239-4.357c-.784-1.691-1.173-3.573-1.173-5.645 0-1.996.365-3.839 1.098-5.531a12.706 12.706 0 0 1 3.107-4.377c1.337-1.225 2.94-2.179 4.812-2.86 1.868-.682 3.938-1.024 6.212-1.024 1.515 0 2.911.177 4.188.531 1.274.354 2.424.847 3.445 1.478a13.574 13.574 0 0 1 2.767 2.254 15.797 15.797 0 0 1 2.139 2.86l-2.764 1.895a21.97 21.97 0 0 0-1.8-2.216 14.085 14.085 0 0 0-2.064-1.837 9.66 9.66 0 0 0-2.331-1.25 7.313 7.313 0 0 0-2.556-.456 8.954 8.954 0 0 0-3.467.683 8.135 8.135 0 0 0-2.879 2.007c-.821.886-1.479 1.984-1.97 3.297-.49 1.314-.736 2.83-.736 4.547zm57.358-13.147v2.236h-9.093v24.094h-6.478v-24.094h-9.092v-2.236h24.663zm-181.763-37.485l-.614-1.411a.256.256 0 0 1-.092.046.675.675 0 0 0 .092-.053c.092-.038.177-.077.261-.123 6.297-3.291 10.592-9.879 10.592-17.48 0-1.074-.084-2.124-.253-3.152a19.544 19.544 0 0 0-1.572-5.14 19.806 19.806 0 0 0-6.842-8.046c-.008 0-.015-.007-.023-.015a19.584 19.584 0 0 0-10.845-3.359c0-.007 0-.007-.008-.016h-30.297v63.064h12.104V77.222h16.199c4.572 0 8.284 3.712 8.284 8.292a8.279 8.279 0 0 1-3.989 7.087l-9.281 5.599-.989.591 3.62 5.998 13.814 22.918 1.442.153-.004-.007 2.151.222.008.038 6.504.736-10.262-24.314zm134.435-10.707h-29.615l-2.661 3.49-2.669 3.489 21.622 3.129c-2.722 7.839-10.178 13.469-18.952 13.469-10.77 0-19.551-8.484-20.058-19.122a19.527 19.527 0 0 1 .283-4.456c1.649-9.427 9.872-16.59 19.774-16.59 5.17 0 9.878 1.956 13.438 5.162h15.394c-5.401-10.416-16.284-17.541-28.832-17.541-16.744 0-30.535 12.686-32.276 28.97a33.285 33.285 0 0 0-.177 2.662c-.007.275-.007.551-.007.828 0 17.925 14.534 32.459 32.46 32.459 15.018 0 27.65-10.201 31.354-24.045a32.416 32.416 0 0 0 1.104-8.414 32.75 32.75 0 0 0-.182-3.49z"/></svg>